<?xml version="1.0" encoding="utf-8"?>
<!-- Generator: Adobe Illustrator 26.0.0, SVG Export Plug-In . SVG Version: 6.00 Build 0)  -->
<svg version="1.1" id="Capa_1" xmlns="http://www.w3.org/2000/svg" xmlns:xlink="http://www.w3.org/1999/xlink" x="0px" y="0px"
	 viewBox="0 0 100 33.33" style="enable-background:new 0 0 100 33.33;" xml:space="preserve">
<style type="text/css">
	.st0{fill:#EC111A;}
	.st1{fill:#01CAFF;}
	.st2{fill:#007BDF;}
	.st3{fill:#082BA5;}
	.st4{fill:#1D1D1B;}
	.st5{fill:#006DC6;}
	.st6{fill:#5CBDD8;}
	.st7{fill:#5BAC29;}
	.st8{fill:#DBDE49;}
	.st9{fill:#FFFFFF;}
	.st10{fill:url(#SVGID_1_);}
	.st11{fill:#121F3D;}
	.st12{fill:#03091E;}
	.st13{fill:#1E1A4D;}
	.st14{fill:#24385B;}
	.st15{fill:#FFFF00;}
	.st16{fill:none;stroke:#EC111A;stroke-width:0.25;stroke-miterlimit:10;}
</style>
<g>
	<g>
		<g>
			<path class="st0" d="M37.62,6.56v14.55H34.9l-0.35-0.79c-0.87,0.73-1.98,1.16-3.23,1.16c-3.28,0-5.62-2.39-5.62-5.71
				c0-3.32,2.34-5.7,5.62-5.7c0.99,0,1.89,0.27,2.66,0.74V6.56H37.62z M34.21,15.76c0-1.4-1.01-2.45-2.39-2.45
				c-1.38,0-2.39,1.05-2.39,2.45c0,1.4,1.01,2.45,2.39,2.45C33.2,18.21,34.21,17.16,34.21,15.76z"/>
			<path class="st0" d="M50.95,15.66c0,0.32-0.03,0.64-0.08,0.98h-7.94c0.24,1.23,1.02,1.86,2.18,1.86c0.86,0,1.58-0.38,1.93-1h3.67
				c-0.75,2.44-2.92,3.97-5.6,3.97c-3.34,0-5.81-2.44-5.81-5.71c0-3.28,2.45-5.69,5.81-5.69C48.56,10.07,50.95,12.53,50.95,15.66
				L50.95,15.66z M43,14.6h4.32c-0.32-1.07-1.09-1.65-2.2-1.65C44.04,12.95,43.3,13.54,43,14.6z"/>
			<path class="st0" d="M63.01,10.42l-4.3,10.69h-3.34l-4.36-10.69h4.04l2.02,6.33l2-6.33H63.01z"/>
			<path class="st0" d="M64.19,6.56h3.68v14.55h-3.68V6.56z"/>
			<path class="st0" d="M81.57,10.41V21.1h-2.85l-0.32-0.76c-0.88,0.71-1.98,1.12-3.23,1.12c-3.27,0-5.61-2.39-5.61-5.71
				c0-3.31,2.34-5.67,5.61-5.67c1.26,0,2.38,0.42,3.27,1.15l0.38-0.83L81.57,10.41z M78.07,15.76c0-1.39-1.01-2.43-2.39-2.43
				c-1.39,0-2.39,1.04-2.39,2.43c0,1.4,1.01,2.44,2.39,2.44C77.05,18.2,78.07,17.16,78.07,15.76z"/>
			<path class="st0" d="M90.19,10.08c3.29,0,5.62,2.37,5.62,5.69c0,3.32-2.33,5.69-5.62,5.69c-1.25,0-2.36-0.42-3.23-1.14
				l-0.35,0.79h-2.73V6.56h3.64v4.26C88.3,10.35,89.2,10.08,90.19,10.08L90.19,10.08z M92.09,15.77c0-1.4-1.01-2.44-2.39-2.44
				c-1.38,0-2.39,1.04-2.39,2.44c0,1.38,1.01,2.43,2.39,2.43C91.07,18.2,92.09,17.16,92.09,15.77z"/>
		</g>
	</g>
	<g>
		<path class="st0" d="M27.7,26.49v0.42c0,0.06-0.04,0.1-0.1,0.1h-1.39h-0.1c-0.06,0-0.1-0.04-0.1-0.1v-2.62
			c0-0.06,0.04-0.1,0.1-0.1h0.54h0.93c0.06,0,0.1,0.04,0.1,0.1v0.42c0,0.06-0.04,0.1-0.1,0.1h-0.93v0.47h0.83
			c0.06,0,0.1,0.04,0.1,0.1v0.4c0,0.06-0.04,0.1-0.1,0.1h-0.83v0.5h0.95C27.66,26.39,27.7,26.42,27.7,26.49z"/>
		<path class="st0" d="M28.87,26.23c0-0.07,0.04-0.1,0.1-0.1h0.44c0.06,0,0.09,0.03,0.1,0.1c0.03,0.15,0.15,0.22,0.39,0.22
			c0.26,0,0.35-0.1,0.35-0.22c0-0.17-0.2-0.24-0.45-0.32c-0.4-0.14-0.9-0.3-0.9-0.92c0-0.56,0.46-0.85,0.94-0.85
			c0.47,0,0.92,0.25,0.97,0.84c0,0.07-0.04,0.1-0.1,0.1h-0.44c-0.06,0-0.09-0.03-0.1-0.1c-0.03-0.15-0.14-0.22-0.32-0.22
			c-0.2,0-0.29,0.1-0.29,0.22c0,0.17,0.17,0.25,0.4,0.33c0.4,0.14,0.95,0.29,0.95,0.91c0,0.56-0.45,0.85-0.99,0.85
			C29.38,27.06,28.92,26.81,28.87,26.23z"/>
		<path class="st0" d="M32.05,25.6c0-0.83,0.62-1.47,1.47-1.47c0.64,0,1.19,0.4,1.36,0.99c0.02,0.07-0.02,0.11-0.09,0.11h-0.48
			c-0.06,0-0.09-0.03-0.11-0.08c-0.11-0.25-0.37-0.39-0.68-0.39c-0.5,0-0.82,0.33-0.82,0.84c0,0.5,0.32,0.84,0.82,0.84
			c0.31,0,0.57-0.15,0.68-0.39c0.02-0.05,0.06-0.08,0.11-0.08h0.48c0.07,0,0.1,0.04,0.09,0.1c-0.16,0.59-0.71,1-1.36,1
			C32.67,27.06,32.05,26.43,32.05,25.6z"/>
		<path class="st0" d="M36.11,26.14v-1.85c0-0.06,0.04-0.1,0.1-0.1h0.44c0.06,0,0.1,0.04,0.1,0.1v1.79c0,0.21,0.1,0.35,0.4,0.35
			c0.3,0,0.4-0.14,0.4-0.35v-1.79c0-0.06,0.04-0.1,0.1-0.1h0.44c0.06,0,0.1,0.04,0.1,0.1v1.85c0,0.6-0.47,0.93-1.05,0.93
			C36.57,27.06,36.11,26.74,36.11,26.14z"/>
		<path class="st0" d="M41.3,26.49v0.42c0,0.06-0.04,0.1-0.1,0.1h-1.39h-0.1c-0.06,0-0.1-0.04-0.1-0.1v-2.62
			c0-0.06,0.04-0.1,0.1-0.1h0.54h0.93c0.06,0,0.1,0.04,0.1,0.1v0.42c0,0.06-0.04,0.1-0.1,0.1h-0.93v0.47h0.83
			c0.06,0,0.1,0.04,0.1,0.1v0.4c0,0.06-0.04,0.1-0.1,0.1h-0.83v0.5h0.95C41.27,26.39,41.3,26.42,41.3,26.49z"/>
		<path class="st0" d="M44.25,26.49v0.42c0,0.06-0.04,0.1-0.1,0.1h-1.19h-0.22c-0.06,0-0.1-0.04-0.1-0.1v-2.62
			c0-0.06,0.04-0.1,0.1-0.1h0.44c0.06,0,0.1,0.04,0.1,0.1v2.1h0.87C44.21,26.39,44.25,26.42,44.25,26.49z"/>
		<path class="st0" d="M47.79,27.01h-0.5c-0.06,0-0.1-0.02-0.11-0.08l-0.11-0.36h-0.99l-0.11,0.36c-0.02,0.06-0.06,0.08-0.11,0.08
			h-0.5c-0.07,0-0.11-0.04-0.08-0.11l0.85-2.62c0.02-0.06,0.06-0.08,0.12-0.08h0.64c0.06,0,0.1,0.03,0.12,0.08l0.85,2.62
			C47.9,26.97,47.86,27.01,47.79,27.01z M46.9,25.96l-0.32-1.07l-0.32,1.07H46.9z"/>
		<path class="st0" d="M53.68,25.6c0,0.8-0.59,1.41-1.37,1.41H51.3h-0.1c-0.06,0-0.1-0.04-0.1-0.1v-2.62c0-0.06,0.04-0.1,0.1-0.1
			h0.54h0.56C53.08,24.19,53.68,24.8,53.68,25.6z M53.05,25.6c0-0.48-0.31-0.79-0.75-0.79h-0.56v1.58h0.56
			C52.75,26.39,53.05,26.08,53.05,25.6z"/>
		<path class="st0" d="M56.7,26.49v0.42c0,0.06-0.04,0.1-0.1,0.1h-1.39h-0.1c-0.06,0-0.1-0.04-0.1-0.1v-2.62
			c0-0.06,0.04-0.1,0.1-0.1h0.54h0.93c0.06,0,0.1,0.04,0.1,0.1v0.42c0,0.06-0.04,0.1-0.1,0.1h-0.93v0.47h0.83
			c0.06,0,0.1,0.04,0.1,0.1v0.4c0,0.06-0.04,0.1-0.1,0.1h-0.83v0.5h0.95C56.66,26.39,56.7,26.42,56.7,26.49z"/>
		<path class="st0" d="M60.1,24.19h0.44c0.06,0,0.1,0.04,0.1,0.1v2.62c0,0.06-0.04,0.1-0.1,0.1H60.1c-0.06,0-0.1-0.04-0.1-0.1v-2.62
			C60,24.22,60.04,24.19,60.1,24.19z"/>
		<path class="st0" d="M63.69,24.19h0.44c0.06,0,0.1,0.04,0.1,0.1v2.62c0,0.06-0.04,0.1-0.1,0.1h-0.3c-0.05,0-0.1-0.02-0.12-0.06
			l-0.96-1.51v1.47c0,0.06-0.04,0.1-0.1,0.1H62.2c-0.06,0-0.1-0.04-0.1-0.1v-2.62c0-0.06,0.04-0.1,0.1-0.1h0.3
			c0.05,0,0.1,0.02,0.12,0.06l0.96,1.51v-1.47C63.59,24.22,63.62,24.19,63.69,24.19z"/>
		<path class="st0" d="M66.33,24.81v0.58h0.91c0.06,0,0.1,0.04,0.1,0.1v0.42c0,0.06-0.04,0.1-0.1,0.1h-0.91v0.89
			c0,0.06-0.04,0.1-0.1,0.1h-0.44c-0.06,0-0.1-0.04-0.1-0.1v-2.62c0-0.06,0.04-0.1,0.1-0.1h0.54h0.93c0.06,0,0.1,0.04,0.1,0.1v0.42
			c0,0.06-0.04,0.1-0.1,0.1H66.33z"/>
		<path class="st0" d="M68.56,25.6c0-0.83,0.66-1.47,1.47-1.47s1.47,0.64,1.47,1.47s-0.66,1.47-1.47,1.47S68.56,26.43,68.56,25.6z
			 M70.85,25.6c0-0.5-0.36-0.84-0.82-0.84s-0.82,0.33-0.82,0.84c0,0.5,0.36,0.84,0.82,0.84S70.85,26.1,70.85,25.6z"/>
		<path class="st0" d="M75.11,26.88c0.05,0.06,0.02,0.12-0.06,0.12h-0.52c-0.05,0-0.09-0.02-0.12-0.06l-0.69-0.87h-0.25v0.83
			c0,0.06-0.04,0.1-0.1,0.1h-0.44c-0.06,0-0.1-0.04-0.1-0.1v-2.62c0-0.06,0.04-0.1,0.1-0.1h0.54h0.44c0.54,0,0.97,0.43,0.97,0.97
			c0,0.34-0.2,0.65-0.5,0.81L75.11,26.88L75.11,26.88z M73.47,25.52h0.44c0.18,0,0.32-0.16,0.32-0.36s-0.15-0.36-0.32-0.36h-0.44
			V25.52z"/>
		<path class="st0" d="M79.15,24.29v2.62c0,0.06-0.04,0.1-0.1,0.1h-0.44c-0.06,0-0.1-0.04-0.1-0.1v-1.63L78,26.49
			c-0.02,0.05-0.06,0.08-0.12,0.08h-0.27c-0.06,0-0.1-0.02-0.12-0.08l-0.51-1.21v1.63c0,0.06-0.04,0.1-0.1,0.1h-0.44
			c-0.06,0-0.1-0.04-0.1-0.1v-2.62c0-0.06,0.04-0.1,0.1-0.1h0.44h0.1c0.06,0,0.1,0.02,0.12,0.08l0.65,1.55l0.65-1.55
			c0.02-0.05,0.06-0.08,0.12-0.08h0.33h0.21C79.12,24.19,79.15,24.22,79.15,24.29z"/>
		<path class="st0" d="M82.9,27.01h-0.5c-0.06,0-0.1-0.02-0.11-0.08l-0.11-0.36H81.2l-0.11,0.36c-0.02,0.06-0.06,0.08-0.11,0.08
			h-0.5c-0.07,0-0.11-0.04-0.08-0.11l0.85-2.62c0.02-0.06,0.06-0.08,0.12-0.08h0.64c0.06,0,0.1,0.03,0.12,0.08l0.85,2.62
			C83.01,26.97,82.97,27.01,82.9,27.01z M82.01,25.96l-0.32-1.07l-0.32,1.07H82.01z"/>
		<path class="st0" d="M85.76,24.29v0.42c0,0.06-0.04,0.1-0.1,0.1h-0.54v2.1c0,0.06-0.04,0.1-0.1,0.1h-0.44
			c-0.06,0-0.1-0.04-0.1-0.1v-2.1h-0.54c-0.06,0-0.1-0.04-0.1-0.1v-0.42c0-0.06,0.04-0.1,0.1-0.1h1.19h0.54
			C85.73,24.19,85.76,24.22,85.76,24.29z"/>
		<path class="st0" d="M87.11,24.19h0.44c0.06,0,0.1,0.04,0.1,0.1v2.62c0,0.06-0.04,0.1-0.1,0.1h-0.44c-0.06,0-0.1-0.04-0.1-0.1
			v-2.62C87.01,24.22,87.05,24.19,87.11,24.19z"/>
		<path class="st0" d="M88.99,25.6c0-0.83,0.62-1.47,1.47-1.47c0.64,0,1.19,0.4,1.36,0.99c0.02,0.07-0.02,0.11-0.09,0.11h-0.48
			c-0.06,0-0.09-0.03-0.11-0.08c-0.11-0.25-0.37-0.39-0.68-0.39c-0.5,0-0.82,0.33-0.82,0.84c0,0.5,0.32,0.84,0.82,0.84
			c0.31,0,0.57-0.15,0.68-0.39c0.02-0.05,0.06-0.08,0.11-0.08h0.48c0.07,0,0.1,0.04,0.09,0.1c-0.16,0.59-0.71,1-1.36,1
			C89.6,27.06,88.99,26.43,88.99,25.6z"/>
		<path class="st0" d="M95.3,27.01h-0.5c-0.06,0-0.1-0.02-0.11-0.08l-0.11-0.36H93.6l-0.11,0.36c-0.02,0.06-0.06,0.08-0.11,0.08
			h-0.5c-0.07,0-0.11-0.04-0.08-0.11l0.85-2.62c0.02-0.06,0.06-0.08,0.12-0.08h0.64c0.06,0,0.1,0.03,0.12,0.08l0.85,2.62
			C95.41,26.97,95.37,27.01,95.3,27.01z M94.41,25.96l-0.32-1.07l-0.32,1.07H94.41z"/>
		<path class="st0" d="M82.44,22.75l-0.58,0.58c-0.04,0.04-0.04,0.1,0,0.14l0.31,0.31c0.04,0.04,0.1,0.04,0.14,0l0.58-0.58
			c0.04-0.04,0.04-0.1,0-0.14l-0.31-0.31C82.54,22.71,82.48,22.71,82.44,22.75z"/>
	</g>
</g>
<path class="st0" d="M18.35,18.01L18.32,4.76h-3.81l0,16.5c0,0,0,0,0,0c0,0,0,0,0,0l0,0.23h-0.01c-0.12,1.97-1.75,3.53-3.75,3.53
	C8.68,25.02,7,23.34,7,21.26c0-2.08,1.68-3.76,3.76-3.76c1.51,0,2.81,0.89,3.41,2.18l0-5.21c-1.03-0.52-2.18-0.81-3.41-0.81
	c-4.2,0-7.6,3.4-7.6,7.6s3.4,7.6,7.6,7.6s7.6-3.4,7.6-7.6c0-0.05,0-0.1,0-0.16h0L18.35,18.01z"/>
<line class="st16" x1="22.21" y1="5.07" x2="22.21" y2="29.07"/>
</svg>
